<?xml version="1.0" standalone="no"?>
<!DOCTYPE svg PUBLIC "-//W3C//DTD SVG 20010904//EN"
 "http://www.w3.org/TR/2001/REC-SVG-20010904/DTD/svg10.dtd">
<svg version="1.0" xmlns="http://www.w3.org/2000/svg"
 width="254.000000pt" height="77.000000pt" viewBox="0 0 254.000000 77.000000"
 preserveAspectRatio="xMidYMid meet">
<metadata>
Created by potrace 1.16, written by Peter Selinger 2001-2019
</metadata>
<g transform="translate(0.000000,77.000000) scale(0.100000,-0.100000)"
fill="#000000" stroke="none">
<path d="M1576 689 c-26 -130 -30 -140 -58 -160 -33 -24 -73 -75 -83 -106 -6
-22 -3 -23 39 -23 45 0 45 0 36 -26 -27 -69 3 -148 67 -183 49 -25 58 -10 84
137 11 60 17 72 33 72 37 0 95 23 131 53 36 29 85 97 85 116 0 6 -45 12 -107
13 -94 3 -108 5 -107 20 1 10 -4 14 -12 11 -8 -3 -14 -1 -14 3 0 5 -20 31 -44
58 l-44 49 -6 -34z"/>
<path d="M10 584 c-6 -14 -10 -36 -10 -50 0 -22 3 -24 54 -24 l55 0 -8 -27
c-5 -16 -17 -66 -26 -113 -9 -47 -21 -98 -26 -114 -5 -16 -9 -40 -9 -52 0 -23
4 -24 59 -24 59 0 59 0 66 32 3 18 11 53 16 78 6 25 18 83 27 130 l17 85 58 3
c47 2 57 6 57 21 0 10 3 33 6 50 l7 31 -167 0 -166 0 -10 -26z"/>
<path d="M386 522 c-4 -7 -29 -120 -47 -212 -5 -25 -13 -64 -18 -87 l-8 -43
57 0 c52 0 58 2 63 22 43 193 66 316 59 323 -8 8 -100 6 -106 -3z"/>
<path d="M566 518 c-2 -7 -8 -35 -14 -63 -22 -102 -53 -241 -58 -257 -5 -16 2
-18 55 -18 55 0 61 2 66 23 2 12 12 57 20 101 19 97 29 116 60 116 31 0 36
-10 25 -51 -4 -19 -13 -56 -18 -84 -6 -27 -13 -63 -17 -78 l-6 -28 57 3 57 3
23 95 c13 52 26 105 29 118 4 15 13 22 30 22 13 0 26 -4 29 -9 6 -9 -29 -205
-40 -223 -3 -5 20 -8 57 -6 l64 3 7 40 c4 22 12 63 18 90 28 137 24 161 -33
195 -39 24 -72 25 -122 4 -33 -14 -39 -14 -61 0 -29 20 -57 20 -94 1 -27 -14
-30 -14 -30 0 0 19 -99 22 -104 3z"/>
<path d="M1185 518 c-64 -22 -106 -80 -125 -173 -10 -50 -9 -60 10 -99 20 -43
40 -57 101 -70 37 -8 112 7 148 31 l31 19 -28 34 -29 34 -38 -18 c-29 -14 -43
-16 -61 -7 -13 6 -24 17 -24 26 0 12 17 15 100 15 l100 0 7 28 c34 129 -67
224 -192 180z"/>
<path d="M1970 523 c-45 -16 -80 -37 -80 -47 0 -6 12 -24 25 -39 20 -23 28
-26 44 -17 11 5 33 10 50 10 24 0 31 -4 31 -20 0 -17 -7 -20 -50 -20 -98 0
-155 -43 -155 -116 0 -33 6 -49 25 -68 26 -27 28 -27 173 -27 84 1 87 2 87 23
0 13 11 68 25 123 23 96 23 101 7 135 -10 21 -31 42 -52 52 -34 17 -99 22
-130 11z"/>
<path d="M2200 518 c0 -19 30 -208 40 -254 9 -36 6 -48 -16 -88 -19 -35 -32
-46 -50 -46 -17 0 -25 -7 -29 -25 -3 -14 -7 -37 -11 -51 l-5 -27 56 5 c42 4
62 11 80 29 29 29 265 435 265 455 0 10 -15 14 -55 14 l-55 0 -42 -85 c-47
-94 -56 -93 -57 6 -1 30 -6 60 -13 67 -16 16 -108 16 -108 0z"/>
</g>
</svg>
